<svg xmlns="http://www.w3.org/2000/svg" width="1100" height="660" viewBox="0 0 1100 660" font-family='system-ui, -apple-system, "Segoe UI", sans-serif'>
<rect width="1100" height="660" fill="#fcfcfb"/>
<text x="34" y="44" font-size="21" font-weight="600" fill="#0b0b0b">One regulator now vouches for half of everything newly prequalified</text>
<text x="34" y="70" font-size="13.5" fill="#52514e">Every prequalified vaccine as one dot: the year it was prequalified, against the national authority that signed it off. 285 products, 22 authorities.</text>
<text x="34" y="89" font-size="13.5" fill="#52514e"><tspan font-weight="600" fill="#0b0b0b">CDSCO (India) has not just the largest share &#8212; a growing one: 41% then 45% then 50%.</tspan> before 2010 n=91, 2010–2017 n=88, since 2018 n=106.</text>
<text x="34" y="112" font-size="12.5" fill="#8a8880">No binning in the encoding &#8212; every dot is a real year. The three era figures are a check on the eye, not the chart.</text>
<text x="34" y="131" font-size="12.5" fill="#8a8880">22 authority STRINGS, 21 bodies: &#8220;CBER/FDA&#8221; and &#8220;US Food and Drug Administration- Office of Vaccine Research and Review&#8221; are the same regulator. Left unmerged &#8212; the publisher&#8217;s values are not rewritten here.</text>
<rect x="248" y="192" width="704" height="34" fill="#fbf1e4"/>
<line x1="319.1" y1="182" x2="319.1" y2="568" stroke="#f0efe9" stroke-width="1"/>
<text x="319.1" y="590" font-size="12" fill="#8a8880" text-anchor="middle">1990</text>
<line x1="404.2" y1="182" x2="404.2" y2="568" stroke="#f0efe9" stroke-width="1"/>
<text x="404.2" y="590" font-size="12" fill="#8a8880" text-anchor="middle">1995</text>
<line x1="489.3" y1="182" x2="489.3" y2="568" stroke="#f0efe9" stroke-width="1"/>
<text x="489.3" y="590" font-size="12" fill="#8a8880" text-anchor="middle">2000</text>
<line x1="574.5" y1="182" x2="574.5" y2="568" stroke="#f0efe9" stroke-width="1"/>
<text x="574.5" y="590" font-size="12" fill="#8a8880" text-anchor="middle">2005</text>
<line x1="659.6" y1="182" x2="659.6" y2="568" stroke="#f0efe9" stroke-width="1"/>
<text x="659.6" y="590" font-size="12" fill="#8a8880" text-anchor="middle">2010</text>
<line x1="744.7" y1="182" x2="744.7" y2="568" stroke="#f0efe9" stroke-width="1"/>
<text x="744.7" y="590" font-size="12" fill="#8a8880" text-anchor="middle">2015</text>
<line x1="829.8" y1="182" x2="829.8" y2="568" stroke="#f0efe9" stroke-width="1"/>
<text x="829.8" y="590" font-size="12" fill="#8a8880" text-anchor="middle">2020</text>
<line x1="915.0" y1="182" x2="915.0" y2="568" stroke="#f0efe9" stroke-width="1"/>
<text x="915.0" y="590" font-size="12" fill="#8a8880" text-anchor="middle">2025</text>
<text x="252" y="214.1" font-size="12.5" fill="#0b0b0b" text-anchor="end" font-weight="600">CDSCO (India)</text>
<text x="946" y="214.1" font-size="12" font-weight="600" fill="#8a8880">130</text>
<circle cx="540.4" cy="217.1" r="4.2" fill="#d17b00" fill-opacity="0.6" stroke="#fcfcfb" stroke-width="0.9"/>
<circle cx="897.9" cy="217.1" r="4.2" fill="#d17b00" fill-opacity="0.6" stroke="#fcfcfb" stroke-width="0.9"/>
<circle cx="915.0" cy="217.1" r="4.2" fill="#d17b00" fill-opacity="0.6" stroke="#fcfcfb" stroke-width="0.9"/>
<circle cx="915.0" cy="211.6" r="4.2" fill="#d17b00" fill-opacity="0.6" stroke="#fcfcfb" stroke-width="0.9"/>
<circle cx="915.0" cy="206.1" r="4.2" fill="#d17b00" fill-opacity="0.6" stroke="#fcfcfb" stroke-width="0.9"/>
<circle cx="915.0" cy="200.6" r="4.2" fill="#d17b00" fill-opacity="0.6" stroke="#fcfcfb" stroke-width="0.9"/>
<circle cx="744.7" cy="217.1" r="4.2" fill="#d17b00" fill-opacity="0.6" stroke="#fcfcfb" stroke-width="0.9"/>
<circle cx="744.7" cy="211.6" r="4.2" fill="#d17b00" fill-opacity="0.6" stroke="#fcfcfb" stroke-width="0.9"/>
<circle cx="744.7" cy="206.1" r="4.2" fill="#d17b00" fill-opacity="0.6" stroke="#fcfcfb" stroke-width="0.9"/>
<circle cx="778.8" cy="217.1" r="4.2" fill="#d17b00" fill-opacity="0.6" stroke="#fcfcfb" stroke-width="0.9"/>
<circle cx="795.8" cy="217.1" r="4.2" fill="#d17b00" fill-opacity="0.6" stroke="#fcfcfb" stroke-width="0.9"/>
<circle cx="846.9" cy="217.1" r="4.2" fill="#d17b00" fill-opacity="0.6" stroke="#fcfcfb" stroke-width="0.9"/>
<circle cx="659.6" cy="217.1" r="4.2" fill="#d17b00" fill-opacity="0.6" stroke="#fcfcfb" stroke-width="0.9"/>
<circle cx="915.0" cy="217.1" r="4.2" fill="#d17b00" fill-opacity="0.6" stroke="#fcfcfb" stroke-width="0.9"/>
<circle cx="880.9" cy="217.1" r="4.2" fill="#d17b00" fill-opacity="0.6" stroke="#fcfcfb" stroke-width="0.9"/>
<circle cx="404.2" cy="217.1" r="4.2" fill="#d17b00" fill-opacity="0.6" stroke="#fcfcfb" stroke-width="0.9"/>
<circle cx="404.2" cy="211.6" r="4.2" fill="#d17b00" fill-opacity="0.6" stroke="#fcfcfb" stroke-width="0.9"/>
<circle cx="404.2" cy="206.1" r="4.2" fill="#d17b00" fill-opacity="0.6" stroke="#fcfcfb" stroke-width="0.9"/>
<circle cx="404.2" cy="200.6" r="4.2" fill="#d17b00" fill-opacity="0.6" stroke="#fcfcfb" stroke-width="0.9"/>
<circle cx="404.2" cy="217.1" r="4.2" fill="#d17b00" fill-opacity="0.6" stroke="#fcfcfb" stroke-width="0.9"/>
<circle cx="404.2" cy="211.6" r="4.2" fill="#d17b00" fill-opacity="0.6" stroke="#fcfcfb" stroke-width="0.9"/>
<circle cx="659.6" cy="211.6" r="4.2" fill="#d17b00" fill-opacity="0.6" stroke="#fcfcfb" stroke-width="0.9"/>
<circle cx="659.6" cy="206.1" r="4.2" fill="#d17b00" fill-opacity="0.6" stroke="#fcfcfb" stroke-width="0.9"/>
<circle cx="659.6" cy="200.6" r="4.2" fill="#d17b00" fill-opacity="0.6" stroke="#fcfcfb" stroke-width="0.9"/>
<circle cx="659.6" cy="217.1" r="4.2" fill="#d17b00" fill-opacity="0.6" stroke="#fcfcfb" stroke-width="0.9"/>
<circle cx="659.6" cy="211.6" r="4.2" fill="#d17b00" fill-opacity="0.6" stroke="#fcfcfb" stroke-width="0.9"/>
<circle cx="659.6" cy="206.1" r="4.2" fill="#d17b00" fill-opacity="0.6" stroke="#fcfcfb" stroke-width="0.9"/>
<circle cx="659.6" cy="200.6" r="4.2" fill="#d17b00" fill-opacity="0.6" stroke="#fcfcfb" stroke-width="0.9"/>
<circle cx="404.2" cy="206.1" r="4.2" fill="#d17b00" fill-opacity="0.6" stroke="#fcfcfb" stroke-width="0.9"/>
<circle cx="404.2" cy="200.6" r="4.2" fill="#d17b00" fill-opacity="0.6" stroke="#fcfcfb" stroke-width="0.9"/>
<circle cx="404.2" cy="217.1" r="4.2" fill="#d17b00" fill-opacity="0.6" stroke="#fcfcfb" stroke-width="0.9"/>
<circle cx="710.7" cy="217.1" r="4.2" fill="#d17b00" fill-opacity="0.6" stroke="#fcfcfb" stroke-width="0.9"/>
<circle cx="710.7" cy="211.6" r="4.2" fill="#d17b00" fill-opacity="0.6" stroke="#fcfcfb" stroke-width="0.9"/>
<circle cx="625.5" cy="217.1" r="4.2" fill="#d17b00" fill-opacity="0.6" stroke="#fcfcfb" stroke-width="0.9"/>
<circle cx="557.4" cy="217.1" r="4.2" fill="#d17b00" fill-opacity="0.6" stroke="#fcfcfb" stroke-width="0.9"/>
<circle cx="557.4" cy="211.6" r="4.2" fill="#d17b00" fill-opacity="0.6" stroke="#fcfcfb" stroke-width="0.9"/>
<circle cx="557.4" cy="206.1" r="4.2" fill="#d17b00" fill-opacity="0.6" stroke="#fcfcfb" stroke-width="0.9"/>
<circle cx="557.4" cy="200.6" r="4.2" fill="#d17b00" fill-opacity="0.6" stroke="#fcfcfb" stroke-width="0.9"/>
<circle cx="897.9" cy="211.6" r="4.2" fill="#d17b00" fill-opacity="0.6" stroke="#fcfcfb" stroke-width="0.9"/>
<circle cx="897.9" cy="206.1" r="4.2" fill="#d17b00" fill-opacity="0.6" stroke="#fcfcfb" stroke-width="0.9"/>
<circle cx="761.7" cy="217.1" r="4.2" fill="#d17b00" fill-opacity="0.6" stroke="#fcfcfb" stroke-width="0.9"/>
<circle cx="795.8" cy="211.6" r="4.2" fill="#d17b00" fill-opacity="0.6" stroke="#fcfcfb" stroke-width="0.9"/>
<circle cx="710.7" cy="206.1" r="4.2" fill="#d17b00" fill-opacity="0.6" stroke="#fcfcfb" stroke-width="0.9"/>
<circle cx="795.8" cy="206.1" r="4.2" fill="#d17b00" fill-opacity="0.6" stroke="#fcfcfb" stroke-width="0.9"/>
<circle cx="489.3" cy="217.1" r="4.2" fill="#d17b00" fill-opacity="0.6" stroke="#fcfcfb" stroke-width="0.9"/>
<circle cx="489.3" cy="211.6" r="4.2" fill="#d17b00" fill-opacity="0.6" stroke="#fcfcfb" stroke-width="0.9"/>
<circle cx="489.3" cy="206.1" r="4.2" fill="#d17b00" fill-opacity="0.6" stroke="#fcfcfb" stroke-width="0.9"/>
<circle cx="489.3" cy="200.6" r="4.2" fill="#d17b00" fill-opacity="0.6" stroke="#fcfcfb" stroke-width="0.9"/>
<circle cx="812.8" cy="217.1" r="4.2" fill="#d17b00" fill-opacity="0.6" stroke="#fcfcfb" stroke-width="0.9"/>
<circle cx="812.8" cy="211.6" r="4.2" fill="#d17b00" fill-opacity="0.6" stroke="#fcfcfb" stroke-width="0.9"/>
<circle cx="812.8" cy="206.1" r="4.2" fill="#d17b00" fill-opacity="0.6" stroke="#fcfcfb" stroke-width="0.9"/>
<circle cx="540.4" cy="211.6" r="4.2" fill="#d17b00" fill-opacity="0.6" stroke="#fcfcfb" stroke-width="0.9"/>
<circle cx="540.4" cy="206.1" r="4.2" fill="#d17b00" fill-opacity="0.6" stroke="#fcfcfb" stroke-width="0.9"/>
<circle cx="540.4" cy="200.6" r="4.2" fill="#d17b00" fill-opacity="0.6" stroke="#fcfcfb" stroke-width="0.9"/>
<circle cx="540.4" cy="217.1" r="4.2" fill="#d17b00" fill-opacity="0.6" stroke="#fcfcfb" stroke-width="0.9"/>
<circle cx="932.0" cy="217.1" r="4.2" fill="#d17b00" fill-opacity="0.6" stroke="#fcfcfb" stroke-width="0.9"/>
<circle cx="932.0" cy="211.6" r="4.2" fill="#d17b00" fill-opacity="0.6" stroke="#fcfcfb" stroke-width="0.9"/>
<circle cx="370.2" cy="217.1" r="4.2" fill="#d17b00" fill-opacity="0.6" stroke="#fcfcfb" stroke-width="0.9"/>
<circle cx="370.2" cy="211.6" r="4.2" fill="#d17b00" fill-opacity="0.6" stroke="#fcfcfb" stroke-width="0.9"/>
<circle cx="370.2" cy="206.1" r="4.2" fill="#d17b00" fill-opacity="0.6" stroke="#fcfcfb" stroke-width="0.9"/>
<circle cx="370.2" cy="200.6" r="4.2" fill="#d17b00" fill-opacity="0.6" stroke="#fcfcfb" stroke-width="0.9"/>
<circle cx="880.9" cy="211.6" r="4.2" fill="#d17b00" fill-opacity="0.6" stroke="#fcfcfb" stroke-width="0.9"/>
<circle cx="880.9" cy="206.1" r="4.2" fill="#d17b00" fill-opacity="0.6" stroke="#fcfcfb" stroke-width="0.9"/>
<circle cx="727.7" cy="217.1" r="4.2" fill="#d17b00" fill-opacity="0.6" stroke="#fcfcfb" stroke-width="0.9"/>
<circle cx="659.6" cy="217.1" r="4.2" fill="#d17b00" fill-opacity="0.6" stroke="#fcfcfb" stroke-width="0.9"/>
<circle cx="642.6" cy="217.1" r="4.2" fill="#d17b00" fill-opacity="0.6" stroke="#fcfcfb" stroke-width="0.9"/>
<circle cx="693.6" cy="217.1" r="4.2" fill="#d17b00" fill-opacity="0.6" stroke="#fcfcfb" stroke-width="0.9"/>
<circle cx="693.6" cy="211.6" r="4.2" fill="#d17b00" fill-opacity="0.6" stroke="#fcfcfb" stroke-width="0.9"/>
<circle cx="744.7" cy="200.6" r="4.2" fill="#d17b00" fill-opacity="0.6" stroke="#fcfcfb" stroke-width="0.9"/>
<circle cx="642.6" cy="211.6" r="4.2" fill="#d17b00" fill-opacity="0.6" stroke="#fcfcfb" stroke-width="0.9"/>
<circle cx="676.6" cy="217.1" r="4.2" fill="#d17b00" fill-opacity="0.6" stroke="#fcfcfb" stroke-width="0.9"/>
<circle cx="676.6" cy="211.6" r="4.2" fill="#d17b00" fill-opacity="0.6" stroke="#fcfcfb" stroke-width="0.9"/>
<circle cx="727.7" cy="211.6" r="4.2" fill="#d17b00" fill-opacity="0.6" stroke="#fcfcfb" stroke-width="0.9"/>
<circle cx="829.8" cy="217.1" r="4.2" fill="#d17b00" fill-opacity="0.6" stroke="#fcfcfb" stroke-width="0.9"/>
<circle cx="693.6" cy="206.1" r="4.2" fill="#d17b00" fill-opacity="0.6" stroke="#fcfcfb" stroke-width="0.9"/>
<circle cx="693.6" cy="200.6" r="4.2" fill="#d17b00" fill-opacity="0.6" stroke="#fcfcfb" stroke-width="0.9"/>
<circle cx="693.6" cy="217.1" r="4.2" fill="#d17b00" fill-opacity="0.6" stroke="#fcfcfb" stroke-width="0.9"/>
<circle cx="693.6" cy="211.6" r="4.2" fill="#d17b00" fill-opacity="0.6" stroke="#fcfcfb" stroke-width="0.9"/>
<circle cx="727.7" cy="206.1" r="4.2" fill="#d17b00" fill-opacity="0.6" stroke="#fcfcfb" stroke-width="0.9"/>
<circle cx="727.7" cy="200.6" r="4.2" fill="#d17b00" fill-opacity="0.6" stroke="#fcfcfb" stroke-width="0.9"/>
<circle cx="727.7" cy="217.1" r="4.2" fill="#d17b00" fill-opacity="0.6" stroke="#fcfcfb" stroke-width="0.9"/>
<circle cx="727.7" cy="211.6" r="4.2" fill="#d17b00" fill-opacity="0.6" stroke="#fcfcfb" stroke-width="0.9"/>
<circle cx="727.7" cy="206.1" r="4.2" fill="#d17b00" fill-opacity="0.6" stroke="#fcfcfb" stroke-width="0.9"/>
<circle cx="915.0" cy="211.6" r="4.2" fill="#d17b00" fill-opacity="0.6" stroke="#fcfcfb" stroke-width="0.9"/>
<circle cx="915.0" cy="206.1" r="4.2" fill="#d17b00" fill-opacity="0.6" stroke="#fcfcfb" stroke-width="0.9"/>
<circle cx="812.8" cy="200.6" r="4.2" fill="#d17b00" fill-opacity="0.6" stroke="#fcfcfb" stroke-width="0.9"/>
<circle cx="812.8" cy="217.1" r="4.2" fill="#d17b00" fill-opacity="0.6" stroke="#fcfcfb" stroke-width="0.9"/>
<circle cx="897.9" cy="200.6" r="4.2" fill="#d17b00" fill-opacity="0.6" stroke="#fcfcfb" stroke-width="0.9"/>
<circle cx="761.7" cy="211.6" r="4.2" fill="#d17b00" fill-opacity="0.6" stroke="#fcfcfb" stroke-width="0.9"/>
<circle cx="761.7" cy="206.1" r="4.2" fill="#d17b00" fill-opacity="0.6" stroke="#fcfcfb" stroke-width="0.9"/>
<circle cx="761.7" cy="200.6" r="4.2" fill="#d17b00" fill-opacity="0.6" stroke="#fcfcfb" stroke-width="0.9"/>
<circle cx="812.8" cy="211.6" r="4.2" fill="#d17b00" fill-opacity="0.6" stroke="#fcfcfb" stroke-width="0.9"/>
<circle cx="932.0" cy="206.1" r="4.2" fill="#d17b00" fill-opacity="0.6" stroke="#fcfcfb" stroke-width="0.9"/>
<circle cx="932.0" cy="200.6" r="4.2" fill="#d17b00" fill-opacity="0.6" stroke="#fcfcfb" stroke-width="0.9"/>
<circle cx="897.9" cy="217.1" r="4.2" fill="#d17b00" fill-opacity="0.6" stroke="#fcfcfb" stroke-width="0.9"/>
<circle cx="897.9" cy="211.6" r="4.2" fill="#d17b00" fill-opacity="0.6" stroke="#fcfcfb" stroke-width="0.9"/>
<circle cx="915.0" cy="200.6" r="4.2" fill="#d17b00" fill-opacity="0.6" stroke="#fcfcfb" stroke-width="0.9"/>
<circle cx="915.0" cy="217.1" r="4.2" fill="#d17b00" fill-opacity="0.6" stroke="#fcfcfb" stroke-width="0.9"/>
<circle cx="710.7" cy="200.6" r="4.2" fill="#d17b00" fill-opacity="0.6" stroke="#fcfcfb" stroke-width="0.9"/>
<circle cx="727.7" cy="200.6" r="4.2" fill="#d17b00" fill-opacity="0.6" stroke="#fcfcfb" stroke-width="0.9"/>
<circle cx="591.5" cy="217.1" r="4.2" fill="#d17b00" fill-opacity="0.6" stroke="#fcfcfb" stroke-width="0.9"/>
<circle cx="880.9" cy="200.6" r="4.2" fill="#d17b00" fill-opacity="0.6" stroke="#fcfcfb" stroke-width="0.9"/>
<circle cx="795.8" cy="200.6" r="4.2" fill="#d17b00" fill-opacity="0.6" stroke="#fcfcfb" stroke-width="0.9"/>
<circle cx="795.8" cy="217.1" r="4.2" fill="#d17b00" fill-opacity="0.6" stroke="#fcfcfb" stroke-width="0.9"/>
<circle cx="795.8" cy="211.6" r="4.2" fill="#d17b00" fill-opacity="0.6" stroke="#fcfcfb" stroke-width="0.9"/>
<circle cx="846.9" cy="211.6" r="4.2" fill="#d17b00" fill-opacity="0.6" stroke="#fcfcfb" stroke-width="0.9"/>
<circle cx="846.9" cy="206.1" r="4.2" fill="#d17b00" fill-opacity="0.6" stroke="#fcfcfb" stroke-width="0.9"/>
<circle cx="880.9" cy="217.1" r="4.2" fill="#d17b00" fill-opacity="0.6" stroke="#fcfcfb" stroke-width="0.9"/>
<circle cx="829.8" cy="211.6" r="4.2" fill="#d17b00" fill-opacity="0.6" stroke="#fcfcfb" stroke-width="0.9"/>
<circle cx="829.8" cy="206.1" r="4.2" fill="#d17b00" fill-opacity="0.6" stroke="#fcfcfb" stroke-width="0.9"/>
<circle cx="795.8" cy="206.1" r="4.2" fill="#d17b00" fill-opacity="0.6" stroke="#fcfcfb" stroke-width="0.9"/>
<circle cx="795.8" cy="200.6" r="4.2" fill="#d17b00" fill-opacity="0.6" stroke="#fcfcfb" stroke-width="0.9"/>
<circle cx="846.9" cy="200.6" r="4.2" fill="#d17b00" fill-opacity="0.6" stroke="#fcfcfb" stroke-width="0.9"/>
<circle cx="846.9" cy="217.1" r="4.2" fill="#d17b00" fill-opacity="0.6" stroke="#fcfcfb" stroke-width="0.9"/>
<circle cx="591.5" cy="211.6" r="4.2" fill="#d17b00" fill-opacity="0.6" stroke="#fcfcfb" stroke-width="0.9"/>
<circle cx="591.5" cy="206.1" r="4.2" fill="#d17b00" fill-opacity="0.6" stroke="#fcfcfb" stroke-width="0.9"/>
<circle cx="591.5" cy="200.6" r="4.2" fill="#d17b00" fill-opacity="0.6" stroke="#fcfcfb" stroke-width="0.9"/>
<circle cx="591.5" cy="217.1" r="4.2" fill="#d17b00" fill-opacity="0.6" stroke="#fcfcfb" stroke-width="0.9"/>
<circle cx="915.0" cy="211.6" r="4.2" fill="#d17b00" fill-opacity="0.6" stroke="#fcfcfb" stroke-width="0.9"/>
<circle cx="795.8" cy="217.1" r="4.2" fill="#d17b00" fill-opacity="0.6" stroke="#fcfcfb" stroke-width="0.9"/>
<circle cx="863.9" cy="217.1" r="4.2" fill="#d17b00" fill-opacity="0.6" stroke="#fcfcfb" stroke-width="0.9"/>
<circle cx="404.2" cy="211.6" r="4.2" fill="#d17b00" fill-opacity="0.6" stroke="#fcfcfb" stroke-width="0.9"/>
<circle cx="404.2" cy="206.1" r="4.2" fill="#d17b00" fill-opacity="0.6" stroke="#fcfcfb" stroke-width="0.9"/>
<circle cx="404.2" cy="200.6" r="4.2" fill="#d17b00" fill-opacity="0.6" stroke="#fcfcfb" stroke-width="0.9"/>
<circle cx="778.8" cy="211.6" r="4.2" fill="#d17b00" fill-opacity="0.6" stroke="#fcfcfb" stroke-width="0.9"/>
<circle cx="778.8" cy="206.1" r="4.2" fill="#d17b00" fill-opacity="0.6" stroke="#fcfcfb" stroke-width="0.9"/>
<circle cx="829.8" cy="200.6" r="4.2" fill="#d17b00" fill-opacity="0.6" stroke="#fcfcfb" stroke-width="0.9"/>
<circle cx="829.8" cy="217.1" r="4.2" fill="#d17b00" fill-opacity="0.6" stroke="#fcfcfb" stroke-width="0.9"/>
<circle cx="812.8" cy="206.1" r="4.2" fill="#d17b00" fill-opacity="0.6" stroke="#fcfcfb" stroke-width="0.9"/>
<circle cx="897.9" cy="206.1" r="4.2" fill="#d17b00" fill-opacity="0.6" stroke="#fcfcfb" stroke-width="0.9"/>
<text x="252" y="248.3" font-size="12.5" fill="#52514e" text-anchor="end" font-weight="400">EMA</text>
<text x="946" y="248.3" font-size="12" font-weight="600" fill="#8a8880">23</text>
<circle cx="915.0" cy="251.3" r="4.2" fill="#1b4f8a" fill-opacity="0.6" stroke="#fcfcfb" stroke-width="0.9"/>
<circle cx="932.0" cy="251.3" r="4.2" fill="#1b4f8a" fill-opacity="0.6" stroke="#fcfcfb" stroke-width="0.9"/>
<circle cx="880.9" cy="251.3" r="4.2" fill="#1b4f8a" fill-opacity="0.6" stroke="#fcfcfb" stroke-width="0.9"/>
<circle cx="897.9" cy="251.3" r="4.2" fill="#1b4f8a" fill-opacity="0.6" stroke="#fcfcfb" stroke-width="0.9"/>
<circle cx="812.8" cy="251.3" r="4.2" fill="#1b4f8a" fill-opacity="0.6" stroke="#fcfcfb" stroke-width="0.9"/>
<circle cx="795.8" cy="251.3" r="4.2" fill="#1b4f8a" fill-opacity="0.6" stroke="#fcfcfb" stroke-width="0.9"/>
<circle cx="932.0" cy="245.8" r="4.2" fill="#1b4f8a" fill-opacity="0.6" stroke="#fcfcfb" stroke-width="0.9"/>
<circle cx="642.6" cy="251.3" r="4.2" fill="#1b4f8a" fill-opacity="0.6" stroke="#fcfcfb" stroke-width="0.9"/>
<circle cx="727.7" cy="251.3" r="4.2" fill="#1b4f8a" fill-opacity="0.6" stroke="#fcfcfb" stroke-width="0.9"/>
<circle cx="897.9" cy="245.8" r="4.2" fill="#1b4f8a" fill-opacity="0.6" stroke="#fcfcfb" stroke-width="0.9"/>
<circle cx="863.9" cy="251.3" r="4.2" fill="#1b4f8a" fill-opacity="0.6" stroke="#fcfcfb" stroke-width="0.9"/>
<circle cx="932.0" cy="240.3" r="4.2" fill="#1b4f8a" fill-opacity="0.6" stroke="#fcfcfb" stroke-width="0.9"/>
<circle cx="710.7" cy="251.3" r="4.2" fill="#1b4f8a" fill-opacity="0.6" stroke="#fcfcfb" stroke-width="0.9"/>
<circle cx="863.9" cy="245.8" r="4.2" fill="#1b4f8a" fill-opacity="0.6" stroke="#fcfcfb" stroke-width="0.9"/>
<circle cx="761.7" cy="251.3" r="4.2" fill="#1b4f8a" fill-opacity="0.6" stroke="#fcfcfb" stroke-width="0.9"/>
<circle cx="829.8" cy="251.3" r="4.2" fill="#1b4f8a" fill-opacity="0.6" stroke="#fcfcfb" stroke-width="0.9"/>
<circle cx="659.6" cy="251.3" r="4.2" fill="#1b4f8a" fill-opacity="0.6" stroke="#fcfcfb" stroke-width="0.9"/>
<circle cx="761.7" cy="245.8" r="4.2" fill="#1b4f8a" fill-opacity="0.6" stroke="#fcfcfb" stroke-width="0.9"/>
<circle cx="897.9" cy="240.3" r="4.2" fill="#1b4f8a" fill-opacity="0.6" stroke="#fcfcfb" stroke-width="0.9"/>
<circle cx="642.6" cy="245.8" r="4.2" fill="#1b4f8a" fill-opacity="0.6" stroke="#fcfcfb" stroke-width="0.9"/>
<circle cx="642.6" cy="240.3" r="4.2" fill="#1b4f8a" fill-opacity="0.6" stroke="#fcfcfb" stroke-width="0.9"/>
<circle cx="659.6" cy="245.8" r="4.2" fill="#1b4f8a" fill-opacity="0.6" stroke="#fcfcfb" stroke-width="0.9"/>
<circle cx="778.8" cy="251.3" r="4.2" fill="#1b4f8a" fill-opacity="0.6" stroke="#fcfcfb" stroke-width="0.9"/>
<text x="252" y="282.5" font-size="12.5" fill="#52514e" text-anchor="end" font-weight="400">MFDS (Korea)</text>
<text x="946" y="282.5" font-size="12" font-weight="600" fill="#8a8880">23</text>
<circle cx="880.9" cy="285.5" r="4.2" fill="#1b4f8a" fill-opacity="0.6" stroke="#fcfcfb" stroke-width="0.9"/>
<circle cx="761.7" cy="285.5" r="4.2" fill="#1b4f8a" fill-opacity="0.6" stroke="#fcfcfb" stroke-width="0.9"/>
<circle cx="761.7" cy="280.0" r="4.2" fill="#1b4f8a" fill-opacity="0.6" stroke="#fcfcfb" stroke-width="0.9"/>
<circle cx="829.8" cy="285.5" r="4.2" fill="#1b4f8a" fill-opacity="0.6" stroke="#fcfcfb" stroke-width="0.9"/>
<circle cx="846.9" cy="285.5" r="4.2" fill="#1b4f8a" fill-opacity="0.6" stroke="#fcfcfb" stroke-width="0.9"/>
<circle cx="421.2" cy="285.5" r="4.2" fill="#1b4f8a" fill-opacity="0.6" stroke="#fcfcfb" stroke-width="0.9"/>
<circle cx="421.2" cy="280.0" r="4.2" fill="#1b4f8a" fill-opacity="0.6" stroke="#fcfcfb" stroke-width="0.9"/>
<circle cx="829.8" cy="280.0" r="4.2" fill="#1b4f8a" fill-opacity="0.6" stroke="#fcfcfb" stroke-width="0.9"/>
<circle cx="744.7" cy="285.5" r="4.2" fill="#1b4f8a" fill-opacity="0.6" stroke="#fcfcfb" stroke-width="0.9"/>
<circle cx="778.8" cy="285.5" r="4.2" fill="#1b4f8a" fill-opacity="0.6" stroke="#fcfcfb" stroke-width="0.9"/>
<circle cx="897.9" cy="285.5" r="4.2" fill="#1b4f8a" fill-opacity="0.6" stroke="#fcfcfb" stroke-width="0.9"/>
<circle cx="676.6" cy="285.5" r="4.2" fill="#1b4f8a" fill-opacity="0.6" stroke="#fcfcfb" stroke-width="0.9"/>
<circle cx="693.6" cy="285.5" r="4.2" fill="#1b4f8a" fill-opacity="0.6" stroke="#fcfcfb" stroke-width="0.9"/>
<circle cx="761.7" cy="274.5" r="4.2" fill="#1b4f8a" fill-opacity="0.6" stroke="#fcfcfb" stroke-width="0.9"/>
<circle cx="778.8" cy="280.0" r="4.2" fill="#1b4f8a" fill-opacity="0.6" stroke="#fcfcfb" stroke-width="0.9"/>
<circle cx="659.6" cy="285.5" r="4.2" fill="#1b4f8a" fill-opacity="0.6" stroke="#fcfcfb" stroke-width="0.9"/>
<circle cx="795.8" cy="285.5" r="4.2" fill="#1b4f8a" fill-opacity="0.6" stroke="#fcfcfb" stroke-width="0.9"/>
<circle cx="812.8" cy="285.5" r="4.2" fill="#1b4f8a" fill-opacity="0.6" stroke="#fcfcfb" stroke-width="0.9"/>
<circle cx="812.8" cy="280.0" r="4.2" fill="#1b4f8a" fill-opacity="0.6" stroke="#fcfcfb" stroke-width="0.9"/>
<circle cx="812.8" cy="274.5" r="4.2" fill="#1b4f8a" fill-opacity="0.6" stroke="#fcfcfb" stroke-width="0.9"/>
<circle cx="812.8" cy="269.0" r="4.2" fill="#1b4f8a" fill-opacity="0.6" stroke="#fcfcfb" stroke-width="0.9"/>
<circle cx="897.9" cy="280.0" r="4.2" fill="#1b4f8a" fill-opacity="0.6" stroke="#fcfcfb" stroke-width="0.9"/>
<circle cx="812.8" cy="285.5" r="4.2" fill="#1b4f8a" fill-opacity="0.6" stroke="#fcfcfb" stroke-width="0.9"/>
<text x="252" y="316.6" font-size="12.5" fill="#52514e" text-anchor="end" font-weight="400">FAMHP (Belgium)</text>
<text x="946" y="316.6" font-size="12" font-weight="600" fill="#8a8880">21</text>
<circle cx="710.7" cy="319.6" r="4.2" fill="#1b4f8a" fill-opacity="0.6" stroke="#fcfcfb" stroke-width="0.9"/>
<circle cx="642.6" cy="319.6" r="4.2" fill="#1b4f8a" fill-opacity="0.6" stroke="#fcfcfb" stroke-width="0.9"/>
<circle cx="642.6" cy="314.1" r="4.2" fill="#1b4f8a" fill-opacity="0.6" stroke="#fcfcfb" stroke-width="0.9"/>
<circle cx="268.0" cy="319.6" r="4.2" fill="#1b4f8a" fill-opacity="0.6" stroke="#fcfcfb" stroke-width="0.9"/>
<circle cx="268.0" cy="314.1" r="4.2" fill="#1b4f8a" fill-opacity="0.6" stroke="#fcfcfb" stroke-width="0.9"/>
<circle cx="268.0" cy="308.6" r="4.2" fill="#1b4f8a" fill-opacity="0.6" stroke="#fcfcfb" stroke-width="0.9"/>
<circle cx="710.7" cy="314.1" r="4.2" fill="#1b4f8a" fill-opacity="0.6" stroke="#fcfcfb" stroke-width="0.9"/>
<circle cx="710.7" cy="308.6" r="4.2" fill="#1b4f8a" fill-opacity="0.6" stroke="#fcfcfb" stroke-width="0.9"/>
<circle cx="642.6" cy="308.6" r="4.2" fill="#1b4f8a" fill-opacity="0.6" stroke="#fcfcfb" stroke-width="0.9"/>
<circle cx="642.6" cy="303.1" r="4.2" fill="#1b4f8a" fill-opacity="0.6" stroke="#fcfcfb" stroke-width="0.9"/>
<circle cx="659.6" cy="319.6" r="4.2" fill="#1b4f8a" fill-opacity="0.6" stroke="#fcfcfb" stroke-width="0.9"/>
<circle cx="659.6" cy="314.1" r="4.2" fill="#1b4f8a" fill-opacity="0.6" stroke="#fcfcfb" stroke-width="0.9"/>
<circle cx="676.6" cy="319.6" r="4.2" fill="#1b4f8a" fill-opacity="0.6" stroke="#fcfcfb" stroke-width="0.9"/>
<circle cx="676.6" cy="314.1" r="4.2" fill="#1b4f8a" fill-opacity="0.6" stroke="#fcfcfb" stroke-width="0.9"/>
<circle cx="642.6" cy="319.6" r="4.2" fill="#1b4f8a" fill-opacity="0.6" stroke="#fcfcfb" stroke-width="0.9"/>
<circle cx="642.6" cy="314.1" r="4.2" fill="#1b4f8a" fill-opacity="0.6" stroke="#fcfcfb" stroke-width="0.9"/>
<circle cx="506.4" cy="319.6" r="4.2" fill="#1b4f8a" fill-opacity="0.6" stroke="#fcfcfb" stroke-width="0.9"/>
<circle cx="676.6" cy="308.6" r="4.2" fill="#1b4f8a" fill-opacity="0.6" stroke="#fcfcfb" stroke-width="0.9"/>
<circle cx="642.6" cy="308.6" r="4.2" fill="#1b4f8a" fill-opacity="0.6" stroke="#fcfcfb" stroke-width="0.9"/>
<circle cx="642.6" cy="303.1" r="4.2" fill="#1b4f8a" fill-opacity="0.6" stroke="#fcfcfb" stroke-width="0.9"/>
<circle cx="812.8" cy="319.6" r="4.2" fill="#1b4f8a" fill-opacity="0.6" stroke="#fcfcfb" stroke-width="0.9"/>
<text x="252" y="350.8" font-size="12.5" fill="#52514e" text-anchor="end" font-weight="400">BPOM (Indonesia)</text>
<text x="946" y="350.8" font-size="12" font-weight="600" fill="#8a8880">17</text>
<circle cx="472.3" cy="353.8" r="4.2" fill="#1b4f8a" fill-opacity="0.6" stroke="#fcfcfb" stroke-width="0.9"/>
<circle cx="659.6" cy="353.8" r="4.2" fill="#1b4f8a" fill-opacity="0.6" stroke="#fcfcfb" stroke-width="0.9"/>
<circle cx="744.7" cy="353.8" r="4.2" fill="#1b4f8a" fill-opacity="0.6" stroke="#fcfcfb" stroke-width="0.9"/>
<circle cx="506.4" cy="353.8" r="4.2" fill="#1b4f8a" fill-opacity="0.6" stroke="#fcfcfb" stroke-width="0.9"/>
<circle cx="438.3" cy="353.8" r="4.2" fill="#1b4f8a" fill-opacity="0.6" stroke="#fcfcfb" stroke-width="0.9"/>
<circle cx="591.5" cy="353.8" r="4.2" fill="#1b4f8a" fill-opacity="0.6" stroke="#fcfcfb" stroke-width="0.9"/>
<circle cx="642.6" cy="353.8" r="4.2" fill="#1b4f8a" fill-opacity="0.6" stroke="#fcfcfb" stroke-width="0.9"/>
<circle cx="812.8" cy="353.8" r="4.2" fill="#1b4f8a" fill-opacity="0.6" stroke="#fcfcfb" stroke-width="0.9"/>
<circle cx="676.6" cy="353.8" r="4.2" fill="#1b4f8a" fill-opacity="0.6" stroke="#fcfcfb" stroke-width="0.9"/>
<circle cx="829.8" cy="353.8" r="4.2" fill="#1b4f8a" fill-opacity="0.6" stroke="#fcfcfb" stroke-width="0.9"/>
<circle cx="727.7" cy="353.8" r="4.2" fill="#1b4f8a" fill-opacity="0.6" stroke="#fcfcfb" stroke-width="0.9"/>
<circle cx="727.7" cy="348.3" r="4.2" fill="#1b4f8a" fill-opacity="0.6" stroke="#fcfcfb" stroke-width="0.9"/>
<circle cx="880.9" cy="353.8" r="4.2" fill="#1b4f8a" fill-opacity="0.6" stroke="#fcfcfb" stroke-width="0.9"/>
<circle cx="932.0" cy="353.8" r="4.2" fill="#1b4f8a" fill-opacity="0.6" stroke="#fcfcfb" stroke-width="0.9"/>
<circle cx="472.3" cy="348.3" r="4.2" fill="#1b4f8a" fill-opacity="0.6" stroke="#fcfcfb" stroke-width="0.9"/>
<circle cx="472.3" cy="342.8" r="4.2" fill="#1b4f8a" fill-opacity="0.6" stroke="#fcfcfb" stroke-width="0.9"/>
<circle cx="540.4" cy="353.8" r="4.2" fill="#1b4f8a" fill-opacity="0.6" stroke="#fcfcfb" stroke-width="0.9"/>
<text x="252" y="385.0" font-size="12.5" fill="#52514e" text-anchor="end" font-weight="400">NMPA (China)</text>
<text x="946" y="385.0" font-size="12" font-weight="600" fill="#8a8880">13</text>
<circle cx="846.9" cy="388.0" r="4.2" fill="#1b4f8a" fill-opacity="0.6" stroke="#fcfcfb" stroke-width="0.9"/>
<circle cx="778.8" cy="388.0" r="4.2" fill="#1b4f8a" fill-opacity="0.6" stroke="#fcfcfb" stroke-width="0.9"/>
<circle cx="778.8" cy="382.5" r="4.2" fill="#1b4f8a" fill-opacity="0.6" stroke="#fcfcfb" stroke-width="0.9"/>
<circle cx="880.9" cy="388.0" r="4.2" fill="#1b4f8a" fill-opacity="0.6" stroke="#fcfcfb" stroke-width="0.9"/>
<circle cx="710.7" cy="388.0" r="4.2" fill="#1b4f8a" fill-opacity="0.6" stroke="#fcfcfb" stroke-width="0.9"/>
<circle cx="710.7" cy="382.5" r="4.2" fill="#1b4f8a" fill-opacity="0.6" stroke="#fcfcfb" stroke-width="0.9"/>
<circle cx="778.8" cy="377.0" r="4.2" fill="#1b4f8a" fill-opacity="0.6" stroke="#fcfcfb" stroke-width="0.9"/>
<circle cx="863.9" cy="388.0" r="4.2" fill="#1b4f8a" fill-opacity="0.6" stroke="#fcfcfb" stroke-width="0.9"/>
<circle cx="863.9" cy="382.5" r="4.2" fill="#1b4f8a" fill-opacity="0.6" stroke="#fcfcfb" stroke-width="0.9"/>
<circle cx="897.9" cy="388.0" r="4.2" fill="#1b4f8a" fill-opacity="0.6" stroke="#fcfcfb" stroke-width="0.9"/>
<circle cx="915.0" cy="388.0" r="4.2" fill="#1b4f8a" fill-opacity="0.6" stroke="#fcfcfb" stroke-width="0.9"/>
<circle cx="863.9" cy="377.0" r="4.2" fill="#1b4f8a" fill-opacity="0.6" stroke="#fcfcfb" stroke-width="0.9"/>
<circle cx="897.9" cy="382.5" r="4.2" fill="#1b4f8a" fill-opacity="0.6" stroke="#fcfcfb" stroke-width="0.9"/>
<text x="252" y="419.2" font-size="12.5" fill="#52514e" text-anchor="end" font-weight="400">BDA (Bulgaria)</text>
<text x="946" y="419.2" font-size="12" font-weight="600" fill="#8a8880">8</text>
<circle cx="336.1" cy="422.2" r="4.2" fill="#1b4f8a" fill-opacity="0.6" stroke="#fcfcfb" stroke-width="0.9"/>
<circle cx="336.1" cy="416.7" r="4.2" fill="#1b4f8a" fill-opacity="0.6" stroke="#fcfcfb" stroke-width="0.9"/>
<circle cx="591.5" cy="422.2" r="4.2" fill="#1b4f8a" fill-opacity="0.6" stroke="#fcfcfb" stroke-width="0.9"/>
<circle cx="591.5" cy="416.7" r="4.2" fill="#1b4f8a" fill-opacity="0.6" stroke="#fcfcfb" stroke-width="0.9"/>
<circle cx="591.5" cy="411.2" r="4.2" fill="#1b4f8a" fill-opacity="0.6" stroke="#fcfcfb" stroke-width="0.9"/>
<circle cx="591.5" cy="405.7" r="4.2" fill="#1b4f8a" fill-opacity="0.6" stroke="#fcfcfb" stroke-width="0.9"/>
<circle cx="591.5" cy="422.2" r="4.2" fill="#1b4f8a" fill-opacity="0.6" stroke="#fcfcfb" stroke-width="0.9"/>
<circle cx="591.5" cy="416.7" r="4.2" fill="#1b4f8a" fill-opacity="0.6" stroke="#fcfcfb" stroke-width="0.9"/>
<text x="252" y="453.4" font-size="12.5" fill="#52514e" text-anchor="end" font-weight="400">ANSM (France)</text>
<text x="946" y="453.4" font-size="12" font-weight="600" fill="#8a8880">7</text>
<circle cx="829.8" cy="456.4" r="4.2" fill="#1b4f8a" fill-opacity="0.6" stroke="#fcfcfb" stroke-width="0.9"/>
<circle cx="574.5" cy="456.4" r="4.2" fill="#1b4f8a" fill-opacity="0.6" stroke="#fcfcfb" stroke-width="0.9"/>
<circle cx="659.6" cy="456.4" r="4.2" fill="#1b4f8a" fill-opacity="0.6" stroke="#fcfcfb" stroke-width="0.9"/>
<circle cx="268.0" cy="456.4" r="4.2" fill="#1b4f8a" fill-opacity="0.6" stroke="#fcfcfb" stroke-width="0.9"/>
<circle cx="676.6" cy="456.4" r="4.2" fill="#1b4f8a" fill-opacity="0.6" stroke="#fcfcfb" stroke-width="0.9"/>
<circle cx="829.8" cy="450.9" r="4.2" fill="#1b4f8a" fill-opacity="0.6" stroke="#fcfcfb" stroke-width="0.9"/>
<circle cx="574.5" cy="450.9" r="4.2" fill="#1b4f8a" fill-opacity="0.6" stroke="#fcfcfb" stroke-width="0.9"/>
<text x="252" y="487.5" font-size="12.5" fill="#52514e" text-anchor="end" font-weight="400">CBER/FDA (US)</text>
<text x="946" y="487.5" font-size="12" font-weight="600" fill="#8a8880">7</text>
<circle cx="642.6" cy="490.5" r="4.2" fill="#1b4f8a" fill-opacity="0.6" stroke="#fcfcfb" stroke-width="0.9"/>
<circle cx="659.6" cy="490.5" r="4.2" fill="#1b4f8a" fill-opacity="0.6" stroke="#fcfcfb" stroke-width="0.9"/>
<circle cx="659.6" cy="485.0" r="4.2" fill="#1b4f8a" fill-opacity="0.6" stroke="#fcfcfb" stroke-width="0.9"/>
<circle cx="659.6" cy="479.5" r="4.2" fill="#1b4f8a" fill-opacity="0.6" stroke="#fcfcfb" stroke-width="0.9"/>
<circle cx="727.7" cy="490.5" r="4.2" fill="#1b4f8a" fill-opacity="0.6" stroke="#fcfcfb" stroke-width="0.9"/>
<circle cx="625.5" cy="490.5" r="4.2" fill="#1b4f8a" fill-opacity="0.6" stroke="#fcfcfb" stroke-width="0.9"/>
<circle cx="795.8" cy="490.5" r="4.2" fill="#1b4f8a" fill-opacity="0.6" stroke="#fcfcfb" stroke-width="0.9"/>
<text x="252" y="521.7" font-size="12.5" fill="#52514e" text-anchor="end" font-weight="400">US FDA (2nd spelling)</text>
<text x="946" y="521.7" font-size="12" font-weight="600" fill="#8a8880">5</text>
<circle cx="829.8" cy="524.7" r="4.2" fill="#1b4f8a" fill-opacity="0.6" stroke="#fcfcfb" stroke-width="0.9"/>
<circle cx="812.8" cy="524.7" r="4.2" fill="#1b4f8a" fill-opacity="0.6" stroke="#fcfcfb" stroke-width="0.9"/>
<circle cx="744.7" cy="524.7" r="4.2" fill="#1b4f8a" fill-opacity="0.6" stroke="#fcfcfb" stroke-width="0.9"/>
<circle cx="744.7" cy="519.2" r="4.2" fill="#1b4f8a" fill-opacity="0.6" stroke="#fcfcfb" stroke-width="0.9"/>
<circle cx="897.9" cy="524.7" r="4.2" fill="#1b4f8a" fill-opacity="0.6" stroke="#fcfcfb" stroke-width="0.9"/>
<text x="252" y="555.9" font-size="12.5" fill="#52514e" text-anchor="end" font-weight="400">12 others</text>
<text x="946" y="555.9" font-size="12" font-weight="600" fill="#8a8880">31</text>
<circle cx="778.8" cy="558.9" r="4.2" fill="#1b4f8a" fill-opacity="0.6" stroke="#fcfcfb" stroke-width="0.9"/>
<circle cx="268.0" cy="558.9" r="4.2" fill="#1b4f8a" fill-opacity="0.6" stroke="#fcfcfb" stroke-width="0.9"/>
<circle cx="268.0" cy="553.4" r="4.2" fill="#1b4f8a" fill-opacity="0.6" stroke="#fcfcfb" stroke-width="0.9"/>
<circle cx="387.2" cy="558.9" r="4.2" fill="#1b4f8a" fill-opacity="0.6" stroke="#fcfcfb" stroke-width="0.9"/>
<circle cx="642.6" cy="558.9" r="4.2" fill="#1b4f8a" fill-opacity="0.6" stroke="#fcfcfb" stroke-width="0.9"/>
<circle cx="506.4" cy="558.9" r="4.2" fill="#1b4f8a" fill-opacity="0.6" stroke="#fcfcfb" stroke-width="0.9"/>
<circle cx="915.0" cy="558.9" r="4.2" fill="#1b4f8a" fill-opacity="0.6" stroke="#fcfcfb" stroke-width="0.9"/>
<circle cx="506.4" cy="553.4" r="4.2" fill="#1b4f8a" fill-opacity="0.6" stroke="#fcfcfb" stroke-width="0.9"/>
<circle cx="506.4" cy="547.9" r="4.2" fill="#1b4f8a" fill-opacity="0.6" stroke="#fcfcfb" stroke-width="0.9"/>
<circle cx="727.7" cy="558.9" r="4.2" fill="#1b4f8a" fill-opacity="0.6" stroke="#fcfcfb" stroke-width="0.9"/>
<circle cx="915.0" cy="553.4" r="4.2" fill="#1b4f8a" fill-opacity="0.6" stroke="#fcfcfb" stroke-width="0.9"/>
<circle cx="846.9" cy="558.9" r="4.2" fill="#1b4f8a" fill-opacity="0.6" stroke="#fcfcfb" stroke-width="0.9"/>
<circle cx="915.0" cy="547.9" r="4.2" fill="#1b4f8a" fill-opacity="0.6" stroke="#fcfcfb" stroke-width="0.9"/>
<circle cx="897.9" cy="558.9" r="4.2" fill="#1b4f8a" fill-opacity="0.6" stroke="#fcfcfb" stroke-width="0.9"/>
<circle cx="659.6" cy="558.9" r="4.2" fill="#1b4f8a" fill-opacity="0.6" stroke="#fcfcfb" stroke-width="0.9"/>
<circle cx="642.6" cy="553.4" r="4.2" fill="#1b4f8a" fill-opacity="0.6" stroke="#fcfcfb" stroke-width="0.9"/>
<circle cx="642.6" cy="547.9" r="4.2" fill="#1b4f8a" fill-opacity="0.6" stroke="#fcfcfb" stroke-width="0.9"/>
<circle cx="642.6" cy="542.4" r="4.2" fill="#1b4f8a" fill-opacity="0.6" stroke="#fcfcfb" stroke-width="0.9"/>
<circle cx="642.6" cy="558.9" r="4.2" fill="#1b4f8a" fill-opacity="0.6" stroke="#fcfcfb" stroke-width="0.9"/>
<circle cx="829.8" cy="558.9" r="4.2" fill="#1b4f8a" fill-opacity="0.6" stroke="#fcfcfb" stroke-width="0.9"/>
<circle cx="659.6" cy="553.4" r="4.2" fill="#1b4f8a" fill-opacity="0.6" stroke="#fcfcfb" stroke-width="0.9"/>
<circle cx="727.7" cy="553.4" r="4.2" fill="#1b4f8a" fill-opacity="0.6" stroke="#fcfcfb" stroke-width="0.9"/>
<circle cx="897.9" cy="553.4" r="4.2" fill="#1b4f8a" fill-opacity="0.6" stroke="#fcfcfb" stroke-width="0.9"/>
<circle cx="659.6" cy="547.9" r="4.2" fill="#1b4f8a" fill-opacity="0.6" stroke="#fcfcfb" stroke-width="0.9"/>
<circle cx="795.8" cy="558.9" r="4.2" fill="#1b4f8a" fill-opacity="0.6" stroke="#fcfcfb" stroke-width="0.9"/>
<circle cx="863.9" cy="558.9" r="4.2" fill="#1b4f8a" fill-opacity="0.6" stroke="#fcfcfb" stroke-width="0.9"/>
<circle cx="506.4" cy="542.4" r="4.2" fill="#1b4f8a" fill-opacity="0.6" stroke="#fcfcfb" stroke-width="0.9"/>
<circle cx="506.4" cy="558.9" r="4.2" fill="#1b4f8a" fill-opacity="0.6" stroke="#fcfcfb" stroke-width="0.9"/>
<circle cx="506.4" cy="553.4" r="4.2" fill="#1b4f8a" fill-opacity="0.6" stroke="#fcfcfb" stroke-width="0.9"/>
<circle cx="506.4" cy="547.9" r="4.2" fill="#1b4f8a" fill-opacity="0.6" stroke="#fcfcfb" stroke-width="0.9"/>
<circle cx="608.5" cy="558.9" r="4.2" fill="#1b4f8a" fill-opacity="0.6" stroke="#fcfcfb" stroke-width="0.9"/>
<text x="946" y="176" font-size="11.5" fill="#8a8880">products</text>
<text x="600" y="620" font-size="13" fill="#52514e" text-anchor="middle">year of prequalification</text>
<text x="34" y="634" font-size="12" fill="#8a8880">Small vertical offsets separate products prequalified in the same year by the same authority. Read with oversight-matrix.svg, which shows whose products those are.</text>
</svg>